<?xml version="1.0" encoding="UTF-8"?>
<svg class="css-1j8o68f" viewBox="65 63 260 260" xmlns="http://www.w3.org/2000/svg">
    <g>
        <g fill="#ffffff">
            <path d="m97.525 109.33 2.974-3.296c6.748-6.807 7.151-7.214 11.826-11.134 2.631-2.064 6.17-4.778 8.888-6.729 17.951-12.38 42.964-21.189 67.617-22.474 3.697-0.192 7.256-0.209 10.661-0.063l0.95 0.046c8.825 0.689 9.354 0.73 14.713 1.614 9.464 1.888 10.028 1.998 15.655 3.674-9.965-3.006-22.103-4.361-35.867-3.644-38.548 2.01-77.848 19.643-97.417 42.006"/>
            <path d="m69.501 163.72 2.021-7.443c1.329-3.848 3.1-8.986 4.63-12.758l0.674-1.56c15.141-34.348 71.952-64.401 127.46-67.293 26.144-1.362 47.364 3.542 61.044 12.691l6.584 4.746c3.434 2.851 7.979 6.698 11.24 9.745-13.907-13.452-39.776-21.084-73-19.352-60.384 3.147-122.2 36.038-138.06 73.462-1.118 2.64-1.978 5.227-2.59 7.762"/>
            <path d="m68.891 220.21c-0.813-4.66-1.851-10.889-2.375-15.59l-0.419-6.647c-0.224-6.202 1.058-12.827 3.997-19.76 17.07-40.266 83.574-75.653 148.54-79.04 42.602-2.219 73.965 9.873 85.695 29.813 6.049 11.404 6.541 12.336 9.576 20.417-8.801-23.918-42.652-38.976-90.279-36.495-66.251 3.452-134.07 39.539-151.48 80.601-4.059 9.573-5.018 18.572-3.262 26.701"/>
            <path d="m92.813 271.63c-7.364-10.301-7.965-11.143-11.981-18.586-5.477-10.262-5.922-22.479-0.262-35.826 17.182-40.531 84.125-76.154 149.52-79.56 53.184-2.772 88.967 16.613 91.234 45.75 0.137 3.502 0.402 8.168 0.379 11.67-0.17 3.192-0.287 7.455-0.592 10.637 3.164-31.788-32.625-53.73-87.91-50.85-63.073 3.286-127.64 37.642-144.21 76.733-6.504 15.341-4.649 29.134 3.82 40.032"/>
            <path d="m138.14 308.34-1.272-0.625c-9.498-5.146-11.208-6.073-19.119-11.712-14.395-10.624-19.502-26.277-11.865-44.292 14.988-35.355 73.379-66.426 130.42-69.398 56.316-2.934 90.262 22.611 76.697 57.281l-1.432 3.529c-5.064 10.84-5.369 11.489-9.361 17.986 1.588-2.523 2.938-5.081 4.035-7.666 13.582-32.041-17.316-55.833-69.018-53.139-51.698 2.695-104.62 30.854-118.2 62.897-8.24 19.442-0.105 35.847 19.117 45.139"/>
            <path d="m203.52 320.49c33.849-1.764 68.495-20.201 77.39-41.179 8.895-20.979-11.336-36.553-45.184-34.789-33.849 1.764-68.497 20.201-77.391 41.179-8.893 20.978 11.337 36.554 45.185 34.789-0.983 0.257-1.973 0.411-2.967 0.463-8.32 0.227-8.646 0.237-13.268 0.01-2.216-0.176-5.176-0.358-7.385-0.594-30.642-3.323-47.16-20.407-37.89-42.273 10.914-25.743 53.429-48.367 94.965-50.532 41.535-2.164 66.359 16.951 55.445 42.693-3.455 8.148-10.078 15.985-18.83 22.959-2.738 2.07-6.428 4.782-9.254 6.727-6.793 4.263-6.793 4.263-10.469 6.225-6.666 3.362-6.666 3.362-10.117 4.828-6.504 2.603-6.504 2.603-10.041 3.775-3.322 1.016-9.504 2.903-10.275 2.903-6.993 1.504-7.267 1.562-10.89 2.09-7.553 0.933-7.848 0.971-11.992 1.189 0.995-0.052 1.984-0.206 2.968-0.463"/>
            <path d="m218.02 308.12c11.248-0.586 22.766-6.713 25.721-13.686s-3.768-12.148-15.018-11.562c-11.25 0.587-22.767 6.714-25.722 13.687-2.955 6.971 3.768 12.148 15.019 11.561-1.771 2.74-3.607 5.031-5.493 6.887-20.602 1.075-32.915-8.405-27.502-21.174 5.414-12.769 26.502-23.991 47.104-25.065 20.602-1.072 32.916 8.407 27.502 21.176-5.412 12.769-26.502 23.99-47.104 25.063 1.886-1.856 3.723-4.147 5.493-6.887"/>
        </g>
    </g>
</svg>
