<?xml version="1.0" encoding="UTF-8"?>
<svg class="css-1j8o68f" viewBox="0 0 352.33 64.8" xmlns="http://www.w3.org/2000/svg">
    <g transform="matrix(2.2893 0 0 2.2893 14.711 1.013)" fill="#fff" featurekey="nameLeftFeature-0">
        <path d="m1.26 20c-0.14 0-0.26-0.12-0.26-0.26v-11.98c0-0.14 0.12-0.26 0.26-0.26h2.88c0.1 0 0.2 0.06 0.24 0.14l3 7.4 2.98-7.4c0.04-0.08 0.14-0.14 0.24-0.14h2.88c0.14 0 0.26 0.12 0.26 0.26v11.98c0 0.14-0.12 0.26-0.26 0.26h-2.34c-0.14 0-0.26-0.12-0.26-0.26v-6.44l-2.44 6.2c-0.04 0.08-0.14 0.14-0.22 0.14h-1.68c-0.1 0-0.2-0.06-0.24-0.14l-2.46-6.2v6.44c0 0.14-0.12 0.26-0.26 0.26h-2.32zm13.743 0v-11.98c0-0.5 0.1-0.6 0.26-0.6h8.76c0.14 0 0.26 0.1 0.26 0.24v2.26c0 0.14-0.12 0.26-0.26 0.26h-5.92v2.08h3.74c0.14 0 0.26 0.12 0.26 0.26v2.24c0 0.14-0.12 0.26-0.26 0.26h-3.74v2.14h5.9c0.14 0 0.26 0.12 0.26 0.26v2.24c0 0.14-0.12 0.26-0.26 0.26h-8.74c-0.16 0-0.26-0.12-0.26 0.08zm13.783 0c-0.14 0-0.24-0.12-0.24-0.26v-9.44h-2.74c-0.14 0-0.26-0.1-0.26-0.24v-2.3c0-0.14 0.12-0.26 0.26-0.26h8.58c0.16 0 0.26 0.12 0.26 0.26v2.3c0 0.14-0.1 0.24-0.26 0.24h-2.74v9.44c0 0.14-0.12 0.26-0.26 0.26h-2.6zm7.123 0v-11.98c0-0.5 0.1-0.6 0.26-0.6h8.76c0.14 0 0.26 0.1 0.26 0.24v2.26c0 0.14-0.12 0.26-0.26 0.26h-5.92v2.08h3.74c0.14 0 0.26 0.12 0.26 0.26v2.24c0 0.14-0.12 0.26-0.26 0.26h-3.74v2.14h5.9c0.14 0 0.26 0.12 0.26 0.26v2.24c0 0.14-0.12 0.26-0.26 0.26h-8.74c-0.16 0-0.26-0.12-0.26 0.08z"/>
    </g>
    <g transform="matrix(-19.519 0 0 19.519 202.5 -16.383)" fill="#fff" featurekey="inlineSymbolFeature-0">
        <g xmlns="http://www.w3.org/2000/svg">
            <path d="m3.814 2.209c-0.077 0.05-0.167 0.096-0.266 0.136-0.098 0.039-0.207 0.072-0.32 0.099s-0.234 0.045-0.356 0.056c-0.061 6e-3 -0.123 0.01-0.185 0.012-0.032 1e-3 -0.062 1e-3 -0.093 2e-3h-0.096c-0.122-5e-3 -0.248-0.015-0.368-0.033-0.12-0.017-0.238-0.041-0.348-0.073-0.111-0.032-0.215-0.07-0.309-0.113s-0.179-0.091-0.249-0.142c-0.07-0.052-0.126-0.105-0.167-0.156-0.04-0.051-0.064-0.099-0.078-0.138-3e-3 -0.01-6e-3 -0.02-9e-3 -0.028-2e-3 -8e-3 -3e-3 -0.016-5e-3 -0.022 0.057-0.131 0.132-0.256 0.224-0.371 0.014 0.059 0.047 0.142 0.113 0.217 0.064 0.075 0.155 0.143 0.264 0.198 0.108 0.056 0.235 0.098 0.375 0.125 0.07 0.015 0.143 0.025 0.218 0.032 0.076 6e-3 0.154 9e-3 0.233 8e-3 0.04 0 0.08-2e-3 0.122-4e-3 0.02-1e-3 0.039-2e-3 0.06-4e-3s0.042-4e-3 0.063-6e-3c0.083-0.01 0.167-0.025 0.252-0.043 0.084-0.018 0.169-0.041 0.253-0.071 0.041-0.015 0.083-0.032 0.124-0.05 0.041-0.019 0.082-0.039 0.122-0.062 0.079-0.045 0.156-0.099 0.219-0.17 0.031-0.036 0.059-0.075 0.08-0.12s0.032-0.094 0.032-0.144v-0.014c0.168 0.18 0.29 0.387 0.366 0.607-0.02 0.036-0.046 0.075-0.081 0.113-0.048 0.054-0.112 0.109-0.19 0.159z"/>
            <path d="m3.937 2.97c-0.087 0.049-0.187 0.094-0.296 0.132-0.11 0.038-0.228 0.069-0.352 0.094s-0.254 0.043-0.386 0.054c-0.067 5e-3 -0.133 9e-3 -0.201 0.011-0.034 1e-3 -0.066 1e-3 -0.1 1e-3l-0.103-1e-3c-0.133-3e-3 -0.269-0.013-0.4-0.03s-0.259-0.041-0.38-0.071c-0.122-0.03-0.236-0.066-0.341-0.109-0.104-0.042-0.199-0.09-0.279-0.14-0.041-0.025-0.077-0.052-0.11-0.078-0.032-0.027-0.061-0.053-0.085-0.08-0.03-0.032-0.053-0.063-0.07-0.092-0.019-0.169-0.011-0.342 0.023-0.511 2e-3 3e-3 5e-3 6e-3 8e-3 9e-3 0.06 0.069 0.135 0.133 0.223 0.191s0.188 0.108 0.296 0.152c0.108 0.043 0.224 0.079 0.346 0.107s0.249 0.048 0.378 0.06 0.26 0.017 0.393 0.014l0.096-3e-3c0.033-3e-3 0.067-4e-3 0.099-7e-3 0.065-6e-3 0.13-0.012 0.194-0.022 0.128-0.019 0.252-0.044 0.37-0.077 0.119-0.034 0.231-0.074 0.334-0.121 0.103-0.048 0.197-0.101 0.278-0.159 0.081-0.059 0.148-0.123 0.2-0.187 0.017-0.021 0.032-0.042 0.045-0.062 0.069 0.255 0.077 0.522 0.023 0.78-0.024 0.023-0.053 0.046-0.083 0.069-0.037 0.025-0.077 0.052-0.12 0.076z"/>
            <path d="m3.652 1.345c0 0.08-0.04 0.157-0.098 0.217-0.028 0.03-0.061 0.057-0.095 0.082-0.035 0.023-0.072 0.044-0.109 0.064-0.153 0.075-0.32 0.112-0.481 0.13-0.081 0.01-0.161 0.013-0.24 0.012-0.019 0-0.038 0-0.057-1e-3 -0.019 0-0.04-1e-3 -0.059-2e-3 -0.037-2e-3 -0.076-5e-3 -0.113-9e-3 -0.073-7e-3 -0.144-0.019-0.212-0.032-0.067-0.014-0.132-0.03-0.192-0.048-0.121-0.037-0.226-0.082-0.309-0.13s-0.145-0.1-0.18-0.145c-0.036-0.045-0.049-0.08-0.053-0.103-1e-3 -5e-3 0-7e-3 -1e-3 -0.01l-2e-3 -1e-3v-5e-3 -9e-3 -0.011-8e-3c0-6e-3 1e-3 -0.014 3e-3 -0.025 5e-3 -0.023 0.017-0.058 0.053-0.103s0.097-0.097 0.18-0.145c0.044-0.026 0.096-0.051 0.152-0.074-4e-3 0.012-6e-3 0.024-8e-3 0.034-4e-3 0.034-4e-3 0.053-4e-3 0.053v0.011s1e-3 0.011 2e-3 0.031c2e-3 0.015 8e-3 0.044 0.017 0.069 9e-3 0.021 0.02 0.047 0.036 0.07 0.031 0.048 0.078 0.094 0.134 0.13s0.124 0.063 0.197 0.079 0.151 0.022 0.233 0.018c0.01 0 0.021-1e-3 0.03-2e-3l0.015-2e-3h8e-3 3e-3 1e-3l2e-3 -1e-3h3e-3c0.02-3e-3 0.037-5e-3 0.058-9e-3 0.044-8e-3 0.085-0.019 0.126-0.032 0.083-0.026 0.166-0.063 0.239-0.12 0.01-6e-3 0.018-0.015 0.026-0.022l0.013-0.012 0.012-0.013c0.017-0.016 0.032-0.036 0.045-0.056 0.026-0.041 0.044-0.09 0.044-0.141l-1e-3 -0.033c-2e-3 -0.013-6e-3 -0.026-9e-3 -0.04-4e-3 -0.012-9e-3 -0.023-0.014-0.035-5e-3 -0.01-0.012-0.021-0.018-0.031-0.014-0.02-0.028-0.04-0.045-0.056l-2e-3 -2e-3c0.235 0.071 0.458 0.194 0.65 0.37 0.013 0.032 0.02 0.065 0.02 0.098z"/>
            <path d="m2.141 3.976c0.119 8e-3 0.238 0.011 0.36 8e-3l0.088-4e-3c0.03-2e-3 0.061-3e-3 0.09-6e-3 0.06-4e-3 0.119-0.01 0.177-0.018 0.117-0.015 0.232-0.035 0.341-0.061 0.11-0.023 0.215-0.055 0.312-0.091 0.015-6e-3 0.031-0.012 0.046-0.018-0.568 0.461-1.367 0.495-1.969 0.102 0.067 0.018 0.137 0.033 0.208 0.046 0.113 0.02 0.229 0.034 0.347 0.042z"/>
            <path d="m2.1 1.096v0-1e-3c0-9e-3 -1e-3 -0.016-1e-3 -0.021v-8e-3c0-3e-3 1e-3 -6e-3 2e-3 -0.011 3e-3 -5e-3 3e-3 -0.011 8e-3 -0.02 9e-3 -0.015 0.026-0.037 0.055-0.061 0.028-0.023 0.069-0.049 0.118-0.071 0.013-5e-3 0.026-0.01 0.039-0.016 0.013-5e-3 0.027-0.01 0.042-0.015 0.014-4e-3 0.03-9e-3 0.045-0.013 0.015-3e-3 0.028-7e-3 0.045-0.011 4e-3 0 9e-3 -1e-3 0.013-2e-3 0.075-5e-3 0.152-8e-3 0.231-6e-3 0.027 4e-3 0.053 0.01 0.08 0.017 0.01 3e-3 0.018 6e-3 0.027 9e-3s0.018 6e-3 0.027 0.01l0.026 0.012 0.025 0.014c0.065 0.038 0.12 0.101 0.119 0.172 0 0.035-0.013 0.069-0.035 0.098-0.022 0.03-0.052 0.054-0.084 0.074l-0.024 0.016-0.026 0.011c-9e-3 4e-3 -0.018 7e-3 -0.027 0.01s-0.017 8e-3 -0.027 9e-3c-0.037 0.01-0.074 0.018-0.111 0.02-0.037 5e-3 -0.074 4e-3 -0.107 2e-3 -0.017-1e-3 -0.038-3e-3 -0.056-4e-3 -0.016-3e-3 -0.032-6e-3 -0.048-8e-3 -0.066-0.012-0.125-0.032-0.174-0.054s-0.09-0.047-0.118-0.071c-0.029-0.024-0.046-0.046-0.055-0.062-5e-3 -7e-3 -5e-3 -0.013-9e-3 -0.019 2e-3 0 1e-3 -1e-3 0 0z"/>
            <path d="m3.473 3.698c-0.094 0.029-0.195 0.053-0.301 0.072s-0.217 0.032-0.33 0.04c-0.056 4e-3 -0.113 6e-3 -0.17 7e-3 -0.029 1e-3 -0.057 0-0.085 1e-3l-0.088-2e-3c-0.113-3e-3 -0.229-0.012-0.34-0.026s-0.22-0.034-0.324-0.058c-0.103-0.024-0.201-0.054-0.29-0.087-0.09-0.034-0.171-0.071-0.24-0.112-0.069-0.039-0.127-0.082-0.169-0.123-0.042-0.042-0.069-0.081-0.083-0.112-0.015-0.03-0.019-0.058-0.02-0.064 0 0 0-0.01-1e-3 -0.014v-0.013c0-7e-3 -1e-3 -0.01-1e-3 -0.01 0-0.021-6e-3 -0.041-0.015-0.059 0.087 0.046 0.182 0.088 0.283 0.122 0.117 0.041 0.243 0.075 0.374 0.102s0.267 0.045 0.407 0.056c0.138 0.012 0.278 0.016 0.421 0.013l0.104-4e-3c0.035-2e-3 0.071-4e-3 0.105-7e-3 0.07-4e-3 0.14-0.011 0.208-0.021 0.137-0.018 0.271-0.042 0.4-0.074 0.128-0.032 0.25-0.071 0.363-0.116 0.113-0.044 0.216-0.097 0.307-0.154 0.041-0.025 0.079-0.052 0.114-0.079-0.066 0.214-0.176 0.417-0.33 0.596-0.013 9e-3 -0.028 0.017-0.043 0.025-0.076 0.038-0.163 0.072-0.256 0.101z"/>
        </g>
    </g>
    <g transform="matrix(2 0 0 2 187 6.4)" fill="#fff" featurekey="nameRightFeature-0">
        <path d="m3.5 20h-1.5v-14h6.2c2.1 0 3.5 1.4 3.5 3.3v1.9c0 2.8-2.7 3.2-2.7 3.2l3.1 5v0.6h-1.5l-3.1-5.5h-4v5.5zm4.7-12.7h-4.7v5.9h4.7c1.1 0 2-0.9 2-2v-1.9c0-1.1-0.9-2-2-2zm5.195 9.6v-7.8c0-1.9 1.4-3.3 3.5-3.3h3.5c2.1 0 3.5 1.4 3.5 3.3v7.8c0 1.9-1.4 3.3-3.5 3.3h-3.5c-2.1 0-3.5-1.4-3.5-3.3zm9 0v-7.8c0-1.1-0.9-2-2-2h-3.5c-1.1 0-2 0.9-2 2v7.8c0 1.1 0.9 2 2 2h3.5c1.1 0 2-0.9 2-2zm3.795-10.9h1.5v12.7h7.5v1.3h-9v-14zm9.495 10.9v-7.8c0-1.9 1.4-3.3 3.5-3.3h3.5c2.1 0 3.5 1.4 3.5 3.3v7.8c0 1.9-1.4 3.3-3.5 3.3h-3.5c-2.1 0-3.5-1.4-3.5-3.3zm9 0v-7.8c0-1.1-0.9-2-2-2h-3.5c-1.1 0-2 0.9-2 2v7.8c0 1.1 0.9 2 2 2h3.5c1.1 0 2-0.9 2-2zm13.095 3.1h-6.2c-2.1 0-3.5-1.4-3.5-3.3v-7.4c0-1.9 1.4-3.3 3.5-3.3h5.8v0.9l-0.4 0.4h-5.4c-1.1 0-2 0.9-2 2v7.4c0 1.1 0.9 2 2 2h4.7v-6.3h1.5v7.6zm3.795 0h-1.5v-14h1.5v14zm1.795-10.1v-0.6c0-1.9 1.4-3.3 3.5-3.3h5.5v0.9l-0.4 0.4h-5.1c-1.1 0-2 0.9-2 2v0.6c0 1.1 0.6 1.68 1.6 1.9l3.7 0.8c1.4 0.3 2.5 1.4 2.5 3.2v0.9c0 1.9-1.4 3.3-3.5 3.3h-6v-1.3h6c1.1 0 2-0.9 2-2v-0.9c0-1.1-0.6-1.68-1.6-1.9l-3.7-0.8c-1.4-0.3-2.5-1.4-2.5-3.2zm14.895-2.6v12.7h-1.5v-12.7h-4.4v-1.3h10.3v0.9l-0.4 0.4h-4z"/>
    </g>
</svg>
